<?xml version="1.0" encoding="utf-8"?>
<!-- Generator: Adobe Illustrator 27.0.1, SVG Export Plug-In . SVG Version: 6.00 Build 0)  -->
<svg version="1.1" id="Layer_1" xmlns="http://www.w3.org/2000/svg" xmlns:xlink="http://www.w3.org/1999/xlink" x="0px" y="0px"
	 viewBox="0 0 230 53" style="enable-background:new 0 0 230 53;" xml:space="preserve">
<style type="text/css">
	.st0{fill:#9CA3AF;stroke:#9CA3AF;stroke-width:2.8023;stroke-linecap:round;stroke-miterlimit:2.4368;}
	.st1{fill:#9CA3AF;}
</style>
<g>
	<path class="st0" d="M4.46,50.2h11.57"/>
	<path class="st0" d="M22.74,50.2h11.57"/>
	<path class="st0" d="M41.01,50.2h11.57"/>
	<path class="st0" d="M59.29,50.2h11.57"/>
	<path class="st0" d="M77.56,50.2h11.57"/>
	<path class="st0" d="M95.84,50.2h11.57"/>
	<path class="st0" d="M114.12,50.2h11.57"/>
	<path class="st0" d="M132.39,50.2h11.57"/>
	<path class="st0" d="M150.67,50.2h11.57"/>
	<path class="st0" d="M168.94,50.2h11.57"/>
	<path class="st0" d="M187.22,50.2h11.57"/>
	<path class="st0" d="M205.5,50.2h11.57"/>
</g>
<path class="st1" d="M104.49,1.46v14.93c-2.29-3.48-6.19-5.54-10.36-5.48c-3.78,0-6.94,1.34-9.63,4.02
	c-2.56,2.57-3.96,6.06-3.9,9.69c0,3.9,1.34,7.13,3.96,9.81c2.56,2.74,5.79,4.08,9.44,4.08c2.13,0,4.08-0.49,5.85-1.28
	c1.71-0.91,3.29-2.19,4.69-3.9v4.51h3.35V1.46H104.49z M16.16,10.6c-1.83,0-3.66,0.49-5.36,1.52c-1.44,0.98-2.66,2.25-3.59,3.72
	v-4.57H3.85v26.56H7.2V26.56c0-3.35,0.37-5.79,0.97-7.43c0.6-1.54,1.64-2.88,2.99-3.84c1.34-0.91,2.8-1.4,4.33-1.4
	c1.34,0,2.5,0.37,3.53,1.04c0.96,0.67,1.68,1.63,2.07,2.74c0.37,1.22,0.55,3.35,0.55,6.58v13.59h3.35V27.47
	c0-3.84,0.3-6.58,0.91-8.22c0.61-1.58,1.64-2.92,2.99-3.9s2.8-1.46,4.45-1.46c1.34,0,2.44,0.3,3.41,0.97
	c0.97,0.61,1.64,1.52,2.07,2.56c0.43,1.1,0.61,3.05,0.61,5.91v14.5h3.41V23.39c0-3.29-0.3-5.85-0.97-7.49
	c-1.24-3.27-4.42-5.4-7.92-5.3c-1.89,0-3.66,0.61-5.36,1.64c-1.64,1.1-3.05,2.68-4.2,4.75c-0.49-1.52-1.16-2.74-1.83-3.59
	c-0.76-0.88-1.72-1.57-2.8-2.01c-1.16-0.55-2.31-0.79-3.66-0.79L16.16,10.6z M62.03,10.6c-3.96,0-7.25,1.46-9.75,4.45
	c-2.38,2.61-3.69,6.03-3.66,9.56c0,3.66,1.22,6.94,3.78,9.75c2.44,2.74,5.67,4.14,9.56,4.14c3.66,0.11,7.17-1.44,9.56-4.2
	c2.43-2.63,3.76-6.1,3.72-9.69c0-3.66-1.16-6.88-3.53-9.63c-2.42-2.87-5.99-4.5-9.75-4.45L62.03,10.6z M127.52,10.6
	c-4.26,0-7.68,1.64-10.3,5c-2.01,2.62-2.99,5.6-2.99,9.02c0,3.59,1.22,6.76,3.59,9.63c2.45,2.87,6.1,4.45,9.87,4.26
	c3.39,0.05,6.66-1.22,9.14-3.53c1.22-1.1,2.31-2.62,3.17-4.45L137.27,29c-1.04,1.77-1.95,3.05-2.86,3.78
	c-1.95,1.66-4.44,2.57-7.01,2.56c-2.68,0-5-0.97-6.82-2.92c-1.89-2.01-2.86-4.51-2.92-7.61h23.27c0-3.66-0.97-6.7-2.86-9.14
	C135.58,12.35,131.65,10.47,127.52,10.6z M156.03,10.6c-1.28,0-2.5,0.37-3.66,1.1c-1.36,0.92-2.52,2.1-3.41,3.47v-3.96h-3.53v26.56
	h3.53v-8.89c0-4.63,0.24-7.74,0.67-9.2c0.61-2.01,1.4-3.47,2.44-4.39c0.92-0.89,2.14-1.39,3.41-1.4c0.43,0,1.04,0.12,1.83,0.49
	l1.83-2.92c-1.16-0.61-2.13-0.91-3.11-0.91V10.6z M176.13,10.6c-1.95,0-3.72,0.43-5.36,1.34c-1.76,1.02-3.28,2.41-4.45,4.08v-4.81
	h-3.35v26.56h3.35v-9.75c0-3.47,0.18-5.91,0.49-7.25c0.49-2.01,1.58-3.66,3.17-5.06c1.64-1.4,3.47-2.07,5.48-2.07
	c1.83,0,3.23,0.49,4.26,1.34c1.19,1.02,1.99,2.42,2.25,3.96c0.3,1.04,0.43,3.05,0.43,6.15v12.67h3.35V24.19
	c0-3.66-0.37-6.34-1.1-8.04c-0.73-1.71-1.83-3.05-3.35-4.08c-1.53-1.02-3.34-1.55-5.18-1.52L176.13,10.6z M204.76,10.6
	c-3.59,0-6.7,1.34-9.26,4.02c-2.55,2.62-3.95,6.15-3.9,9.81c-0.08,3.69,1.3,7.25,3.84,9.93c4.67,5.13,12.6,5.5,17.73,0.83
	c0.66-0.6,1.25-1.27,1.77-1.99v4.63h3.29V11.21H215v4.87c-1.14-1.75-2.69-3.19-4.51-4.2c-1.73-0.89-3.66-1.33-5.6-1.28H204.76z
	 M127.52,13.83c1.58,0,3.05,0.37,4.39,1.04c1.46,0.61,2.56,1.52,3.41,2.62c0.79,1.1,1.46,2.5,1.95,4.33h-19.31
	c0.73-2.44,1.71-4.26,3.05-5.48c1.83-1.64,4.02-2.44,6.52-2.44V13.83z M205.07,13.83c2.86,0,5.24,1.04,7.25,3.11
	c1.89,2.07,2.86,4.63,2.86,7.74c0,2.01-0.43,3.84-1.22,5.42c-1.78,3.21-5.16,5.22-8.83,5.24c-1.83,0-3.53-0.49-5.12-1.4
	c-4.83-3.21-6.44-9.56-3.72-14.68c1.69-3.29,5.07-5.36,8.77-5.36V13.83z M61.91,13.95c2.74,0,5.12,1.04,7.07,3.11
	c3.24,3.54,3.9,8.74,1.64,12.98c-1.66,3.24-5.01,5.27-8.65,5.24c-3.64,0.03-6.99-2-8.65-5.24c-0.88-1.65-1.34-3.49-1.34-5.36
	c0-2.99,0.97-5.48,2.92-7.61c1.95-2.07,4.26-3.11,7.07-3.11L61.91,13.95z M94.32,14.13c5.72,0,10.36,4.63,10.36,10.35
	c0,0.1,0,0.21,0,0.31c0.03,1.89-0.43,3.76-1.34,5.42c-1.93,3.17-5.36,5.13-9.08,5.18c-3.73-0.04-7.15-2.09-8.96-5.36
	c-1.84-3.29-1.84-7.31,0-10.6C87.1,16.14,90.56,14.1,94.32,14.13z M223.16,13.34h0.49c0.24,0,0.43,0,0.49-0.12
	c0.12,0,0.18-0.12,0.18-0.24l-0.12-0.18c0-0.12,0-0.12-0.12-0.18h-0.91V13.34z M222.8,14.74v-2.44h1.46c0.18,0.06,0.3,0.18,0.37,0.3
	l0.12,0.3c0,0.24-0.12,0.37-0.18,0.49c-0.18,0.14-0.39,0.22-0.61,0.24l0.24,0.12l0.37,0.49l0.3,0.49h-0.49l-0.18-0.43l-0.43-0.61
	h-0.55v1.04L222.8,14.74z M223.77,11.51c-0.3,0-0.61,0.06-0.91,0.3c-0.3,0.12-0.55,0.37-0.67,0.67c-0.38,0.6-0.38,1.35,0,1.95
	c0.12,0.3,0.37,0.55,0.67,0.67c0.3,0.24,0.61,0.3,0.91,0.3c0.37,0,0.67-0.06,0.97-0.3c0.3-0.12,0.61-0.37,0.73-0.67
	c0.12-0.3,0.24-0.61,0.24-0.97c0-0.3-0.12-0.61-0.24-0.97c-0.18-0.29-0.43-0.52-0.73-0.67C224.44,11.57,224.14,11.51,223.77,11.51z
	 M223.77,11.21c0.43,0,0.79,0.06,1.16,0.24s0.61,0.49,0.85,0.85c0.24,0.37,0.3,0.73,0.3,1.22c0,0.37-0.06,0.73-0.3,1.1
	c-0.18,0.37-0.49,0.61-0.85,0.85c-0.35,0.2-0.75,0.3-1.16,0.3c-0.37,0-0.73-0.12-1.1-0.3c-0.37-0.18-0.61-0.49-0.85-0.85
	c-0.18-0.37-0.3-0.73-0.3-1.16c0-0.43,0.12-0.79,0.3-1.16c0.24-0.37,0.49-0.61,0.85-0.85C223.04,11.27,223.47,11.21,223.77,11.21z"
	/>
</svg>
