<?xml version="1.0" encoding="utf-8"?>
<!-- Generator: Adobe Illustrator 27.0.1, SVG Export Plug-In . SVG Version: 6.00 Build 0)  -->
<svg version="1.1" id="layer" xmlns="http://www.w3.org/2000/svg" xmlns:xlink="http://www.w3.org/1999/xlink" x="0px" y="0px"
	 viewBox="0 0 652 652" style="enable-background:new 0 0 652 652;" xml:space="preserve">
<style type="text/css">
	.st0{fill:#6B7280;}
	.st1{fill:#FFFFFF;}
	.st2{fill:#9CA3AF;}
</style>
<path class="st0" d="M527.8,369.2c-11.1,0.1-17-6.7-17-18.7c0-0.8,0-1.6,0.1-2.4h43.7c0.9-3.2,1.5-6.7,1.5-9.8
	c0-14.7-9.4-25.9-28.6-25.9c-19.6,0-37.1,18.6-37.1,38.1c0,18.7,12.7,30.1,33.9,30.1c9.4,0,18.6-3.1,25.1-7.8l-4-9.7
	C540.2,366.8,534.1,369.1,527.8,369.2z M527.7,322.9c6.5,0,9.8,4,9.8,12.9c0,0.9-0.1,1.7-0.1,2.6h-24.9
	C515.1,329.1,520.9,322.9,527.7,322.9z M354.9,308.2c0-15.2-12.4-26.3-31.2-26.3h-36.4l-27.4,97h22.9l10.1-35.8h19.9
	C335.6,343.1,354.9,329,354.9,308.2z M304,331.8h-7.9l10.9-38.5h8.3c10.4,0,16.3,6.8,16.3,15.8C331.6,323.4,319.8,331.8,304,331.8z
	 M325.9,443h22v0.1l33.8-118.3h23.1l-15.2,54h22.2l18.2-64.7h-45.4l2.6-9c1.3-4.7,3.4-12.8,6.5-22c3.2-9.5,9-15.5,16.8-15.5
	c3.8,0,6.1,1.6,6.1,4.5c-0.1,3.1-2.7,4.8-2.7,9.7c0,5.7,5,10.1,11.5,10.1c8.1,0,14.6-6.2,14.6-13.9c0-11.8-10.5-19.6-26.6-19.6
	c-23.5,0-39,14.4-48.7,48 M497.4,314.1h-58.9l-2.9,10.7h28.5l-44.2,54h62.4l2.9-10.7H453L497.4,314.1z M614,313.1
	c-8,0-16.4,5-23.1,15.2l3.9-14.1h-22.2l-18.2,64.7h22.2l8.2-29.1c3.3-11.9,11.4-23.5,16.8-23.5c5.8,0,3.6,10.4,13.6,10.4
	c7.2,0,11.5-6.4,11.5-12.2C626.7,317.6,621.1,313.1,614,313.1z"/>
<path class="st1" d="M28.3,335.6C28.3,335.5,28.3,335.5,28.3,335.6c0.1-0.2,0.1-0.3,0.1-0.4L28.3,335.6z"/>
<path class="st2" d="M44.8,320.3c18.6-8.4,50.9-10.9,92.1-6.1l11.7-41.1C89,265.8,45.6,274,38.3,300l-0.3,1
	C36.8,307.2,39.3,313.7,44.8,320.3z"/>
<path class="st0" d="M229,308.1c-18.6,8.4-50.9,10.9-92.1,6.1l-11.7,41.1c59.5,7.3,102.9-0.9,110.2-26.9l0.3-1
	C236.9,321.2,234.5,314.7,229,308.1z"/>
<path class="st2" d="M78,208.4l-11.7,41.1c69.7,4.8,140.5,32,162.6,58.6c8.5-3.9,14.2-9,16.5-15.3l-9.8,34.5c-0.1,0.3-0.1,0.7-0.2,1
	l7.9-27.8c2.6-8.7,3.8-13.3,3.8-16.9C247.1,251.9,160.5,213.2,78,208.4z"/>
<path class="st2" d="M229,308.1c5.5,6.6,8,13.1,6.7,19.3l9.8-34.5C243.2,299.1,237.5,304.2,229,308.1z"/>
<path class="st0" d="M44.8,320.3c-8.5,3.9-14.2,9-16.5,15.2c-1.1,4.1-1.6,6.8-1.6,9.2c0,31.8,86.6,70.4,169.1,75.2l11.6-41.1
	C137.7,374,66.9,346.8,44.8,320.3z"/>
<path class="st1" d="M38.3,300l-7.8,27.8c-0.8,2.9-1.5,5.3-2.1,7.4L38,301C38.1,300.7,38.2,300.3,38.3,300z"/>
<path class="st0" d="M44.8,320.3c-5.5-6.6-8-13.1-6.7-19.2l-9.7,34.1c0,0.1-0.1,0.2-0.1,0.3C30.6,329.2,36.2,324.1,44.8,320.3z"/>
</svg>
